<svg xmlns="http://www.w3.org/2000/svg" viewBox="0 0 512 512" width="512" height="512">
  <defs>
    <linearGradient id="bgGrad" x1="0%" y1="0%" x2="100%" y2="100%">
      <stop offset="0%" style="stop-color:#f2f5f8;stop-opacity:1" />
      <stop offset="100%" style="stop-color:#dde3ec;stop-opacity:1" />
    </linearGradient>
  </defs>
  <rect width="512" height="512" rx="96" ry="96" fill="url(#bgGrad)"/>
  <circle cx="230" cy="230" r="165" fill="none" stroke="#0f172a" stroke-width="26"/>
  <line x1="230" y1="78" x2="230" y2="102" stroke="#0f172a" stroke-width="14" stroke-linecap="round"/>
  <line x1="230" y1="358" x2="230" y2="382" stroke="#0f172a" stroke-width="14" stroke-linecap="round"/>
  <line x1="78" y1="230" x2="102" y2="230" stroke="#0f172a" stroke-width="14" stroke-linecap="round"/>
  <line x1="358" y1="230" x2="382" y2="230" stroke="#0f172a" stroke-width="14" stroke-linecap="round"/>
  <line x1="310" y1="95" x2="299" y2="116" stroke="#0f172a" stroke-width="11" stroke-linecap="round"/>
  <line x1="150" y1="95" x2="161" y2="116" stroke="#0f172a" stroke-width="11" stroke-linecap="round"/>
  <line x1="365" y1="150" x2="344" y2="161" stroke="#0f172a" stroke-width="11" stroke-linecap="round"/>
  <line x1="95" y1="150" x2="116" y2="161" stroke="#0f172a" stroke-width="11" stroke-linecap="round"/>
  <line x1="230" y1="230" x2="230" y2="138" stroke="#0f172a" stroke-width="18" stroke-linecap="round"/>
  <line x1="230" y1="230" x2="290" y2="200" stroke="#0f172a" stroke-width="14" stroke-linecap="round"/>
  <circle cx="230" cy="230" r="11" fill="#0f172a"/>
  <polyline points="175,270 210,308 290,218" fill="none" stroke="#059669" stroke-width="22" stroke-linecap="round" stroke-linejoin="round"/>
  <circle cx="372" cy="372" r="110" fill="#0f172a"/>
  <circle cx="372" cy="372" r="94" fill="#e9edf2"/>
  <text x="372" y="375" font-family="Arial,sans-serif" font-size="96" font-weight="700" fill="#0f172a" text-anchor="middle" dominant-baseline="middle">$</text>
</svg>
